{"title":"The.Way.2010.DVDRip.XVID.AC3.HQ.Hive-CM8","uid":6261355,"size":2083898748,"categoryP":"video","categoryS":"movies","magnet":"?xt=urn:btih:8bd0ae68b668a3b356c752a65c5c73b04bebab54&amp;dn=The.Way.2010.DVDRip.XVID.AC3.HQ.Hive-CM8&amp;tr=udp%3A%2F%2Ftracker.openbittorrent.com%3A80&amp;tr=udp%3A%2F%2Fopen.demonii.com%3A1337&amp;tr=udp%3A%2F%2Ftracker.coppersurfer.tk%3A6969&amp;tr=udp%3A%2F%2Fexodus.desync.com%3A6969","seeders":11,"leechers":1,"uploader":"TvTeam","files":6,"time":1300769968,"description":". \n  &lt;a href=&quot;\nhttp://www.torrenting.com/&quot; rel=&quot;nofollow&quot; target=&quot;_NEW&quot;&gt;\nhttp://www.torrenting.com/&lt;/a&gt;        :     Greatest Movie Tracker on The Net!!!\n &lt;a href=&quot;\nhttp://www.Torrenting.com&quot; rel=&quot;nofollow&quot; target=&quot;_NEW&quot;&gt;\nhttp://www.Torrenting.com&lt;/a&gt;          :     Once &amp; For all ;)\n\n\n               www . Torrenting . Com \n\n(((((((((((((= Enjoy No RAR releases =))))))))))))))))))))\n\n\n...................................NFO:....................................\n\n.[img]http://img846.imageshack.us/img846/5536/thewaypostermartinsheen.jpg[/img]\n\n[color=blue][size=5][b]The Way 2010 DVDRip XVID AC3-5.1 HQ Hive-CM8[/b][/size][/color]\n\nThere is a difference between &quot;the life we live and the life we choose.&quot;\n\n[b]Thx Hive\n\nCM8 Doing It Right The First Time :D\n\nSource DVD-9\n\nVideo: 720x400 @bitrate 1800 2pass\nAudio: English AC3 5.1 @448\nSample: yes included\n\nEncode: added sharpness,brightness,rgb,denoise[/b]\n\n\n[url]http://www.imdb.com/title/tt1441912/[/url]\n\n[url]http://theway-themovie.com/blog/category/film-clips/[/url]\n\n\nGeneral\nComplete name                    : The.Way.2010.DVDRip.XVID.AC3.HQ.Hive-CM8.avi\nFormat                           : AVI\nFormat/Info                      : Audio Video Interleave\nFile size                        : 1.93 GiB\nDuration                         : 2h 2mn\nOverall bit rate                 : 2 251 Kbps\nWriting application              : Nandub v1.0rc2\nWriting library                  : Nandub build 1853/release\n\nVideo\nID                               : 0\nFormat                           : MPEG-4 Visual\nFormat profile                   : Advanced Simple@L5\nFormat settings, BVOP            : Yes\nFormat settings, QPel            : Yes\nFormat settings, GMC             : No warppoints\nFormat settings, Matrix          : Default (H.263)\nMuxing mode                      : Packed bitstream\nCodec ID                         : XVID\nCodec ID/Hint                    : XviD\nDuration                         : 2h 2mn\nBit rate                         : 1 794 Kbps\nWidth                            : 720 pixels\nHeight                           : 400 pixels\nDisplay aspect ratio             : 16:9\nFrame rate                       : 25.000 fps\nColor space                      : YUV\nChroma subsampling               : 4:2:0\nBit depth                        : 8 bits\nScan type                        : Progressive\nBits/(Pixel*Frame)               : 0.249\nStream size                      : 1.54 GiB (80%)\nWriting library                  : XviD 1.2.1 (UTC 2008-12-04)\n\nAudio\nID                               : 1\nFormat                           : AC-3\nFormat/Info                      : Audio Coding 3\nMode extension                   : CM (complete main)\nCodec ID                         : 2000\nDuration                         : 2h 2mn\nBit rate mode                    : Constant\nBit rate                         : 448 Kbps\nChannel(s)                       : 6 channels\nChannel positions                : Front: L C R, Side: L R, LFE\nSampling rate                    : 48.0 KHz\nBit depth                        : 16 bits\nStream size                      : 394 MiB (20%)\nAlignment                        : Split accross interleaves\nInterleave, duration             : 40 ms (1.00 video frame)\nInterleave, preload duration     : 500 ms\n\n\n\n\nMartin Sheen as Thomas Avery\nDeborah Kara Unger as Sarah\nJames Nesbitt as Jack\nYorick van Wageningen as Joost\nEmilio Estevez as Daniel Avery\n\n\n\nMartin Sheen plays Tom, an American doctor and widower who travels to St. Jean Pied de Port, \nFrance to recover the body of his estranged adult son (played by Emilio), who was killed \naccidentally during a storm while walking The Camino de Santiago,a Christian pilgrimage \nroute to the Cathedral of Santiago de Compostela in Galicia, Spain, also known as The Way of St. James.  \nLooking for insights into his estranged child's life, he decides to complete the 500-mile mountain trek to Spain, \ntaking his son's cremated remains with him and spreading them along the historical trek \nfrom the Pyrenees in southern France, to Santiago de Compostela in northwest of Spain.\n\n\n\n[img]http://img62.imageshack.us/img62/8210/wwaa.png[/img]\n[img]http://img860.imageshack.us/img860/4908/wwawaa.png[/img]\n[img]http://img251.imageshack.us/img251/2964/wwawwawaawaa.png[/img]\n[img]http://img848.imageshack.us/img848/2973/wwwaawaa.png[/img]\n[img]http://img820.imageshack.us/img820/1760/12609131.png[/img]\n[img]http://img713.imageshack.us/img713/8118/wwawwaawaa.png[/img]\n\n\n\n\n\nGreetz\n\niNK,LUSi,,MAGNET,CLASSiFiED,THC,LEGi0N,T0XiC,IMAGiNE,ViSiON,WBZ,FLAWL3SS,NOVA\nVik,Rapeseed,D2U,SAFC,goldadvance,MEMORY100,KaN1vE,Unevano,Pinnz,Wayne,Mr Hive\nand all P2P groups \nGreat Work Guys :D\n\n&lt;a class=&quot;__cf_email__&quot; href=&quot;/cdn-cgi/l/email-protection&quot; data-cfemail=&quot;480b057008203d3b2025292124662b2725&quot;&gt;[email&amp;#160;protected]&lt;/a&gt;&lt;script cf-hash='f9e31' type=&quot;text/javascript&quot;&gt;\n/* &lt;![CDATA[ */!function(){try{var t=&quot;currentScript&quot;in document?document.currentScript:function(){for(var t=document.getElementsByTagName(&quot;script&quot;),e=t.length;e--;)if(t[e].getAttribute(&quot;cf-hash&quot;))return t[e]}();if(t&amp;&amp;t.previousSibling){var e,r,n,i,c=t.previousSibling,a=c.getAttribute(&quot;data-cfemail&quot;);if(a){for(e=&quot;&quot;,r=parseInt(a.substr(0,2),16),n=2;a.length-n;n+=2)i=parseInt(a.substr(n,2),16)^r,e+=String.fromCharCode(i);e=document.createTextNode(e),c.parentNode.replaceChild(e,c)}}}catch(u){}}();/* ]]&gt; */&lt;/script&gt;","torrent":{"xt":"urn:btih:8bd0ae68b668a3b356c752a65c5c73b04bebab54","amp;dn":"The.Way.2010.DVDRip.XVID.AC3.HQ.Hive-CM8","amp;tr":["udp%3A%2F%2Ftracker.openbittorrent.com%3A80","udp%3A%2F%2Fopen.demonii.com%3A1337","udp%3A%2F%2Ftracker.coppersurfer.tk%3A6969","udp%3A%2F%2Fexodus.desync.com%3A6969"],"infoHash":"8bd0ae68b668a3b356c752a65c5c73b04bebab54","infoHashBuffer":{"type":"Buffer","data":[139,208,174,104,182,104,163,179,86,199,82,166,92,92,115,176,75,235,171,84]},"announce":[],"urlList":[]}}